<mxfile host="app.diagrams.net" modified="2022-01-16T10:27:25.435Z" agent="5.0 (Windows NT 10.0; Win64; x64) AppleWebKit/537.36 (KHTML, like Gecko) Chrome/97.0.4692.71 Safari/537.36" etag="6pA0nxEB_LIEWTzZ3QnV" version="16.2.7" type="github">
  <diagram id="Heb-encUlXAbGyOXTRXq" name="Page-1">
    <mxGraphModel dx="702" dy="761" grid="1" gridSize="10" guides="1" tooltips="1" connect="1" arrows="1" fold="1" page="1" pageScale="1" pageWidth="827" pageHeight="1169" math="0" shadow="0">
      <root>
        <mxCell id="0" />
        <mxCell id="1" parent="0" />
        <mxCell id="oxl2pZGGvznE1NZQ5hPy-5" value="FlyweightFactory" style="swimlane;fontStyle=1;align=center;verticalAlign=top;childLayout=stackLayout;horizontal=1;startSize=26;horizontalStack=0;resizeParent=1;resizeParentMax=0;resizeLast=0;collapsible=1;marginBottom=0;" vertex="1" parent="1">
          <mxGeometry x="80" y="198" width="160" height="86" as="geometry" />
        </mxCell>
        <mxCell id="oxl2pZGGvznE1NZQ5hPy-6" value="- flyweights" style="text;strokeColor=none;fillColor=none;align=left;verticalAlign=top;spacingLeft=4;spacingRight=4;overflow=hidden;rotatable=0;points=[[0,0.5],[1,0.5]];portConstraint=eastwest;" vertex="1" parent="oxl2pZGGvznE1NZQ5hPy-5">
          <mxGeometry y="26" width="160" height="26" as="geometry" />
        </mxCell>
        <mxCell id="oxl2pZGGvznE1NZQ5hPy-7" value="" style="line;strokeWidth=1;fillColor=none;align=left;verticalAlign=middle;spacingTop=-1;spacingLeft=3;spacingRight=3;rotatable=0;labelPosition=right;points=[];portConstraint=eastwest;" vertex="1" parent="oxl2pZGGvznE1NZQ5hPy-5">
          <mxGeometry y="52" width="160" height="8" as="geometry" />
        </mxCell>
        <mxCell id="oxl2pZGGvznE1NZQ5hPy-8" value="+ getFlyweight(key)" style="text;strokeColor=none;fillColor=none;align=left;verticalAlign=top;spacingLeft=4;spacingRight=4;overflow=hidden;rotatable=0;points=[[0,0.5],[1,0.5]];portConstraint=eastwest;" vertex="1" parent="oxl2pZGGvznE1NZQ5hPy-5">
          <mxGeometry y="60" width="160" height="26" as="geometry" />
        </mxCell>
        <mxCell id="oxl2pZGGvznE1NZQ5hPy-9" value="«interface»&lt;br&gt;&lt;b&gt;Flyweight&lt;/b&gt;" style="html=1;" vertex="1" parent="1">
          <mxGeometry x="440" y="216" width="110" height="50" as="geometry" />
        </mxCell>
        <mxCell id="oxl2pZGGvznE1NZQ5hPy-10" value="Client" style="swimlane;fontStyle=0;childLayout=stackLayout;horizontal=1;startSize=26;fillColor=none;horizontalStack=0;resizeParent=1;resizeParentMax=0;resizeLast=0;collapsible=1;marginBottom=0;" vertex="1" parent="1">
          <mxGeometry x="90" y="440" width="140" height="52" as="geometry" />
        </mxCell>
        <mxCell id="oxl2pZGGvznE1NZQ5hPy-18" value="ConcreteFlyweight" style="swimlane;fontStyle=1;align=center;verticalAlign=top;childLayout=stackLayout;horizontal=1;startSize=26;horizontalStack=0;resizeParent=1;resizeParentMax=0;resizeLast=0;collapsible=1;marginBottom=0;" vertex="1" parent="1">
          <mxGeometry x="415" y="423" width="160" height="86" as="geometry" />
        </mxCell>
        <mxCell id="oxl2pZGGvznE1NZQ5hPy-19" value="- data" style="text;strokeColor=none;fillColor=none;align=left;verticalAlign=top;spacingLeft=4;spacingRight=4;overflow=hidden;rotatable=0;points=[[0,0.5],[1,0.5]];portConstraint=eastwest;" vertex="1" parent="oxl2pZGGvznE1NZQ5hPy-18">
          <mxGeometry y="26" width="160" height="26" as="geometry" />
        </mxCell>
        <mxCell id="oxl2pZGGvznE1NZQ5hPy-20" value="" style="line;strokeWidth=1;fillColor=none;align=left;verticalAlign=middle;spacingTop=-1;spacingLeft=3;spacingRight=3;rotatable=0;labelPosition=right;points=[];portConstraint=eastwest;" vertex="1" parent="oxl2pZGGvznE1NZQ5hPy-18">
          <mxGeometry y="52" width="160" height="8" as="geometry" />
        </mxCell>
        <mxCell id="oxl2pZGGvznE1NZQ5hPy-21" value="+ getData()" style="text;strokeColor=none;fillColor=none;align=left;verticalAlign=top;spacingLeft=4;spacingRight=4;overflow=hidden;rotatable=0;points=[[0,0.5],[1,0.5]];portConstraint=eastwest;" vertex="1" parent="oxl2pZGGvznE1NZQ5hPy-18">
          <mxGeometry y="60" width="160" height="26" as="geometry" />
        </mxCell>
        <mxCell id="oxl2pZGGvznE1NZQ5hPy-22" value="Use" style="html=1;verticalAlign=bottom;endArrow=open;dashed=1;endSize=8;rounded=0;" edge="1" parent="1" source="oxl2pZGGvznE1NZQ5hPy-10" target="oxl2pZGGvznE1NZQ5hPy-5">
          <mxGeometry relative="1" as="geometry">
            <mxPoint x="400" y="390" as="sourcePoint" />
            <mxPoint x="320" y="390" as="targetPoint" />
          </mxGeometry>
        </mxCell>
        <mxCell id="oxl2pZGGvznE1NZQ5hPy-23" value="Use" style="html=1;verticalAlign=bottom;endArrow=open;dashed=1;endSize=8;rounded=0;" edge="1" parent="1" source="oxl2pZGGvznE1NZQ5hPy-10" target="oxl2pZGGvznE1NZQ5hPy-18">
          <mxGeometry relative="1" as="geometry">
            <mxPoint x="190" y="480" as="sourcePoint" />
            <mxPoint x="330" y="370" as="targetPoint" />
          </mxGeometry>
        </mxCell>
        <mxCell id="oxl2pZGGvznE1NZQ5hPy-30" value="" style="endArrow=open;html=1;endSize=12;startArrow=diamondThin;startSize=14;startFill=1;rounded=0;" edge="1" parent="1" source="oxl2pZGGvznE1NZQ5hPy-5" target="oxl2pZGGvznE1NZQ5hPy-9">
          <mxGeometry relative="1" as="geometry">
            <mxPoint x="260" y="240.5" as="sourcePoint" />
            <mxPoint x="420" y="240.5" as="targetPoint" />
          </mxGeometry>
        </mxCell>
        <mxCell id="oxl2pZGGvznE1NZQ5hPy-31" value="0..n" style="edgeLabel;resizable=0;html=1;align=left;verticalAlign=top;" connectable="0" vertex="1" parent="oxl2pZGGvznE1NZQ5hPy-30">
          <mxGeometry x="-1" relative="1" as="geometry" />
        </mxCell>
        <mxCell id="oxl2pZGGvznE1NZQ5hPy-32" value="1" style="edgeLabel;resizable=0;html=1;align=right;verticalAlign=top;" connectable="0" vertex="1" parent="oxl2pZGGvznE1NZQ5hPy-30">
          <mxGeometry x="1" relative="1" as="geometry" />
        </mxCell>
        <mxCell id="oxl2pZGGvznE1NZQ5hPy-33" value="" style="endArrow=block;dashed=1;endFill=0;endSize=12;html=1;rounded=0;" edge="1" parent="1" source="oxl2pZGGvznE1NZQ5hPy-18" target="oxl2pZGGvznE1NZQ5hPy-9">
          <mxGeometry width="160" relative="1" as="geometry">
            <mxPoint x="280" y="390" as="sourcePoint" />
            <mxPoint x="440" y="390" as="targetPoint" />
          </mxGeometry>
        </mxCell>
      </root>
    </mxGraphModel>
  </diagram>
</mxfile>
